G04 MADE WITH FRITZING*
G04 WWW.FRITZING.ORG*
G04 DOUBLE SIDED*
G04 HOLES PLATED*
G04 CONTOUR ON CENTER OF CONTOUR VECTOR*
%ASAXBY*%
%FSLAX23Y23*%
%MOIN*%
%OFA0B0*%
%SFA1.0B1.0*%
%ADD10R,1.091980X0.787187X1.075980X0.771187*%
%ADD11C,0.008000*%
%ADD12C,0.010000*%
%ADD13C,0.005000*%
%ADD14R,0.001000X0.001000*%
%LNSILK1*%
G90*
G70*
G54D11*
X4Y783D02*
X1088Y783D01*
X1088Y4D01*
X4Y4D01*
X4Y783D01*
D02*
G54D12*
X151Y642D02*
X151Y392D01*
D02*
X151Y392D02*
X251Y392D01*
D02*
X251Y392D02*
X251Y642D01*
D02*
X251Y642D02*
X151Y642D01*
G54D13*
D02*
X151Y607D02*
X186Y642D01*
G54D14*
X427Y760D02*
X427Y760D01*
X425Y759D02*
X429Y759D01*
X424Y758D02*
X430Y758D01*
X422Y757D02*
X431Y757D01*
X421Y756D02*
X432Y756D01*
X420Y755D02*
X434Y755D01*
X419Y754D02*
X435Y754D01*
X418Y753D02*
X436Y753D01*
X417Y752D02*
X436Y752D01*
X415Y751D02*
X425Y751D01*
X428Y751D02*
X437Y751D01*
X414Y750D02*
X424Y750D01*
X430Y750D02*
X437Y750D01*
X413Y749D02*
X423Y749D01*
X431Y749D02*
X437Y749D01*
X412Y748D02*
X422Y748D01*
X431Y748D02*
X437Y748D01*
X411Y747D02*
X421Y747D01*
X431Y747D02*
X437Y747D01*
X410Y746D02*
X419Y746D01*
X430Y746D02*
X437Y746D01*
X408Y745D02*
X418Y745D01*
X429Y745D02*
X437Y745D01*
X407Y744D02*
X417Y744D01*
X428Y744D02*
X437Y744D01*
X406Y743D02*
X416Y743D01*
X427Y743D02*
X436Y743D01*
X405Y742D02*
X415Y742D01*
X426Y742D02*
X435Y742D01*
X404Y741D02*
X414Y741D01*
X424Y741D02*
X434Y741D01*
X403Y740D02*
X412Y740D01*
X423Y740D02*
X433Y740D01*
X403Y739D02*
X411Y739D01*
X422Y739D02*
X432Y739D01*
X403Y738D02*
X410Y738D01*
X421Y738D02*
X431Y738D01*
X404Y737D02*
X409Y737D01*
X420Y737D02*
X430Y737D01*
X405Y736D02*
X408Y736D01*
X419Y736D02*
X428Y736D01*
X417Y735D02*
X427Y735D01*
X416Y734D02*
X426Y734D01*
X415Y733D02*
X425Y733D01*
X414Y732D02*
X424Y732D01*
X413Y731D02*
X423Y731D01*
X411Y730D02*
X421Y730D01*
X411Y729D02*
X420Y729D01*
X410Y728D02*
X419Y728D01*
X410Y727D02*
X418Y727D01*
X410Y726D02*
X417Y726D01*
X410Y725D02*
X416Y725D01*
X410Y724D02*
X416Y724D01*
X410Y723D02*
X416Y723D01*
X410Y722D02*
X416Y722D01*
X410Y721D02*
X416Y721D01*
X410Y720D02*
X416Y720D01*
X411Y719D02*
X415Y719D01*
X412Y718D02*
X414Y718D01*
X411Y712D02*
X415Y712D01*
X410Y711D02*
X416Y711D01*
X410Y710D02*
X416Y710D01*
X410Y709D02*
X416Y709D01*
X410Y708D02*
X416Y708D01*
X411Y707D02*
X415Y707D01*
X413Y706D02*
X413Y706D01*
D02*
G04 End of Silk1*
M02*